<?xml version="1.0" encoding="UTF-8" standalone="no"?><!-- Generator: Gravit.io --><svg xmlns="http://www.w3.org/2000/svg" xmlns:xlink="http://www.w3.org/1999/xlink" style="isolation:isolate" viewBox="0 0 100 100" width="100pt" height="100pt"><defs><clipPath id="_clipPath_i8WKuU0rRLa0VArBzBH1AlB9XnaAan2k"><rect width="100" height="100"/></clipPath></defs><g clip-path="url(#_clipPath_i8WKuU0rRLa0VArBzBH1AlB9XnaAan2k)"><linearGradient id="_lgradient_1" x1="0" y1="0.5" x2="0.7025629482270861" y2="-0.21162160154007748" gradientTransform="matrix(76.101,0,0,77.082,18.2,11.201)" gradientUnits="userSpaceOnUse"><stop offset="0%" stop-opacity="1" style="stop-color:rgb(255,193,7)"/><stop offset="100%" stop-opacity="1" style="stop-color:rgb(255,193,7)"/></linearGradient><path d=" M 77.8 18.3 C 86 23.8 92.5 32.6 94 42.1 C 95.4 51.6 91.8 61.8 85.6 68.7 C 79.4 75.5 70.6 79.1 61.6 82.7 C 52.6 86.4 43.3 90.1 36.8 87.3 C 30.4 84.5 26.7 75 23.7 66.7 C 20.6 58.3 18.2 51.1 18.2 43.3 C 18.3 35.4 20.9 26.9 26.6 21 C 32.3 15.1 41.1 11.8 50.5 11.3 C 59.8 10.7 69.6 12.8 77.8 18.3 Z " fill="url(#_lgradient_1)"/></g></svg>